<svg width="136" height="112" viewBox="0 0 136 112" fill="none" xmlns="http://www.w3.org/2000/svg">
<rect width="136" height="112" rx="15" fill="white"/>
<path fill-rule="evenodd" clip-rule="evenodd" d="M92.8551 9.16156L15.2656 12.417C10.8752 12.7966 9.34784 15.6655 9.34784 19.1038V78.7631C9.34784 81.4412 10.2989 83.7328 12.5934 86.7954L25.3858 103.429C27.4876 106.107 29.3985 106.682 33.4112 106.491L119.777 103.429C125.121 103.049 126.652 100.56 126.652 96.355V29.2378C126.652 27.0643 125.794 26.4378 123.266 24.5829L105.461 12.0295C101.258 8.97371 99.5399 8.5872 92.8551 9.16058V9.16156ZM34.8402 27.3751C29.6798 27.7223 28.5094 27.8009 25.5786 25.4179L18.1276 19.4913C17.3703 18.7242 17.7509 17.7672 19.6589 17.5764L95.1437 14.5177C99.537 14.1342 101.825 15.6655 103.543 17.003L112.515 23.504C112.899 23.6977 113.853 24.8415 112.705 24.8415L35.509 27.3298L34.8402 27.3751ZM28.8241 95.0175V38.0402C28.8241 35.5519 29.5883 34.4041 31.876 34.2114L117.098 31.3425C119.203 31.1527 120.154 32.4903 120.154 34.9746V91.5722C120.154 94.0605 119.771 96.1652 116.335 96.355L33.7849 99.0331C30.3496 99.2229 28.8251 98.0791 28.8251 95.0175H28.8241Z" fill="black"/>
<path d="M35.8799 89.8194V85.739L40.7432 84.7229V48.7065L35.8799 48.0301V47.3043C35.8799 45.4349 37.3945 43.8665 39.2628 43.8013L56.0897 43.2137L66.3819 70.7292L76.2676 44.262C76.6669 43.193 77.6768 42.4599 78.8043 42.4205L91.0074 41.9943V43.0579C91.0074 44.8188 89.7407 46.3683 88.0067 46.7287L86.1139 47.1222V83.1385L91.0074 83.8139V85.1802C91.0074 86.6792 89.793 87.9368 88.2949 87.9891L74.1477 88.4831V84.4027L79.3131 83.376V52.5062L79.162 52.4812L65.6941 87.3879L61.2537 87.543L47.8015 54.6033L47.6504 54.6388L47.8015 72.3561V84.4764L52.1312 85.1715V87.4425C52.1312 88.4418 51.3216 89.2802 50.3229 89.3151L47.3625 89.4185L35.8799 89.8194Z" fill="black"/>
<path d="M109.09 71.7366L115.401 71.5163C116.18 71.4893 116.594 72.3958 116.077 72.9975L104.333 86.6654C103.974 87.0839 103.341 87.1059 102.981 86.7127L91.237 73.865C90.7199 73.2993 91.1338 72.3637 91.9133 72.3365L98.2142 72.1164V42.1496L109.09 41.7698V71.7366Z" fill="black"/>
</svg>
