<svg width="177" height="177" viewBox="0 0 177 177" fill="none" xmlns="http://www.w3.org/2000/svg">
<rect width="177" height="177" fill="white"/>
<path fill-rule="evenodd" clip-rule="evenodd" d="M122.87 23.7312L15.5782 28.2329C9.50715 28.7578 7.39507 32.725 7.39507 37.4795V119.977C7.39507 123.68 8.71019 126.849 11.8831 131.084L29.5726 154.086C32.4789 157.789 35.1214 158.583 40.6702 158.32L160.099 154.086C167.487 153.56 169.605 150.119 169.605 144.303V51.4929C169.605 48.4873 168.418 47.621 164.922 45.056L140.301 27.697C134.49 23.4715 132.114 22.937 122.87 23.7299V23.7312ZM42.6463 48.9171C35.5103 49.3972 33.8919 49.506 29.8391 46.2107L19.5358 38.0154C18.4886 36.9546 19.0149 35.6313 21.6533 35.3674L126.035 31.1378C132.11 30.6074 135.273 32.7249 137.649 34.5745L150.056 43.5641C150.587 43.832 151.906 45.4137 150.319 45.4137L43.5711 48.8546L42.6463 48.9171ZM34.3271 142.454V63.6649C34.3271 60.2241 35.3839 58.637 38.5472 58.3704L156.394 54.4033C159.304 54.1408 160.619 55.9904 160.619 59.4258V137.69C160.619 141.131 160.089 144.041 155.339 144.303L41.187 148.007C36.4365 148.269 34.3285 146.688 34.3285 142.454H34.3271Z" fill="black"/>
<path d="M44.084 135.266V129.623L50.809 128.218V78.4145L44.084 77.4791V76.4755C44.084 73.8904 46.1783 71.7217 48.7618 71.6315L72.0303 70.8189L86.2625 108.868L99.9325 72.2686C100.485 70.7903 101.881 69.7765 103.44 69.7221L120.315 69.1328V70.6035C120.315 73.0384 118.563 75.1811 116.166 75.6795L113.548 76.2236V126.027L120.315 126.961V128.851C120.315 130.924 118.636 132.663 116.564 132.735L97.0011 133.418V127.776L104.144 126.356V83.6687L103.935 83.6342L85.3113 131.904L79.1711 132.118L60.5692 86.5687L60.3604 86.6178L60.5692 111.117V127.878L66.5564 128.839V131.979C66.5564 133.361 65.4369 134.52 64.0558 134.568L59.9622 134.711L44.084 135.266Z" fill="black"/>
<path d="M145.32 110.261L154.047 109.956C155.124 109.919 155.696 111.172 154.982 112.005L138.742 130.905C138.245 131.483 137.369 131.514 136.871 130.97L120.632 113.204C119.917 112.422 120.49 111.128 121.567 111.09L130.281 110.786V69.3476L145.32 68.8224V110.261Z" fill="black"/>
</svg>
